{
  "accessors": [
    {
      "bufferView": 0,
      "componentType": 5125,
      "count": 358578,
      "type": "SCALAR"
    },
    {
      "bufferView": 1,
      "componentType": 5126,
      "count": 68183,
      "max": [
        2.9343798160553,
        2.92296862602234,
        2.80333089828491
      ],
      "min": [
        -2.92441177368164,
        -2.53925108909607,
        -2.83655548095703
      ],
      "type": "VEC3"
    },
    {
      "bufferView": 2,
      "componentType": 5126,
      "count": 68183,
      "type": "VEC3"
    },
    {
      "bufferView": 3,
      "componentType": 5126,
      "count": 68183,
      "type": "VEC2"
    }
  ],
  "asset": {
    "generator": "Substance Painter 7.1.1",
    "version": "2.0"
  },
  "bufferViews": [
    {
      "buffer": 0,
      "byteLength": 1434312,
      "target": 34963
    },
    {
      "buffer": 0,
      "byteLength": 818196,
      "byteOffset": 1434312,
      "target": 34962
    },
    {
      "buffer": 0,
      "byteLength": 818196,
      "byteOffset": 2252508,
      "target": 34962
    },
    {
      "buffer": 0,
      "byteLength": 545464,
      "byteOffset": 3070704,
      "target": 34962
    }
  ],
  "buffers": [
    {
      "byteLength": 3616168,
      "uri": "test.bin"
    }
  ],
  "images": [
    {
      "uri": "blue_baseColor.png"
    },
    {
      "uri": "blue_occlusionRoughnessMetallic.png"
    },
    {
      "uri": "blue_normal.png"
    }
  ],
  "materials": [
    {
      "alphaMode": "OPAQUE",
      "name": "blue",
      "normalTexture": {
        "index": 2
      },
      "occlusionTexture": {
        "index": 1
      },
      "pbrMetallicRoughness": {
        "baseColorTexture": {
          "index": 0
        },
        "metallicRoughnessTexture": {
          "index": 1
        }
      }
    }
  ],
  "meshes": [
    {
      "name": "test",
      "primitives": [
        {
          "attributes": {
            "NORMAL": 2,
            "POSITION": 1,
            "TEXCOORD_0": 3
          },
          "indices": 0,
          "material": 0,
          "mode": 4
        }
      ]
    }
  ],
  "nodes": [
    {
      "children": [
        1
      ],
      "name": "RootNode"
    },
    {
      "children": [
        2
      ],
      "name": "test"
    },
    {
      "mesh": 0,
      "name": "test"
    }
  ],
  "samplers": [
    {
      "magFilter": 9729,
      "minFilter": 9985,
      "wrapS": 10497,
      "wrapT": 10497
    }
  ],
  "scene": 0,
  "scenes": [
    {
      "name": "Scene",
      "nodes": [
        0
      ]
    }
  ],
  "textures": [
    {
      "sampler": 0,
      "source": 0
    },
    {
      "sampler": 0,
      "source": 1
    },
    {
      "sampler": 0,
      "source": 2
    }
  ]
}